<?xml version="1.0" encoding="utf-8"?>
<svg width="241px" height="241px" viewBox="0 0 241 241" version="1.1" xmlns:xlink="http://www.w3.org/1999/xlink" xmlns="http://www.w3.org/2000/svg">
  <defs>
    <linearGradient x1="-0.062240664" y1="0.49792534" x2="0.80497926" y2="0.5" id="gradient_1">
      <stop offset="0" stop-color="#9E4399" />
      <stop offset="1" stop-color="#D3D3D3" />
    </linearGradient>
  </defs>
  <path d="M0 120.5C0 53.9497 53.9497 0 120.5 0C187.05 0 241 53.9497 241 120.5C241 187.05 187.05 241 120.5 241C53.9497 241 0 187.05 0 120.5Z" id="Ellipse" fill="url(#gradient_1)" fill-rule="evenodd" stroke="none" />
  <path d="M105 0C47.0101 0 0 47.0101 0 105C0 162.99 47.0101 210 105 210C162.99 210 210 162.99 210 105C210 47.0101 162.99 0 105 0ZM92.8533 60.0277L145.837 43.8197C152.245 41.9754 157.462 45.7014 157.462 52.11L157.462 130.15C157.462 140.266 147.271 149.712 134.715 151.221C122.158 152.748 111.968 146.358 111.968 136.242C111.968 126.126 122.158 116.7 134.715 115.172C143.266 114.129 148.035 116.886 148.035 116.886L148.035 78.5457C148.035 73.7579 142.856 75.4904 142.856 75.4904L96.0018 90.1707C96.0018 90.1707 90.6178 92.1082 90.6178 96.5794L90.6178 144.309C90.6178 154.425 81.4146 163.758 68.8395 165.528C56.283 167.317 46.0925 161.132 46.0925 151.016C46.0925 140.9 56.283 131.268 68.8395 129.48C77.3906 128.269 81.2283 130.858 81.2283 130.858L81.2283 74.9688C81.2283 68.5415 86.4261 61.8534 92.8533 60.0277Z" transform="translate(15 15)" id="Ellipse-2-Difference" fill="#1E2229" fill-rule="evenodd" stroke="none" />
</svg>