<?xml version="1.0" encoding="utf-8"?>
<svg width="926px" height="264px" viewBox="0 0 926 264" version="1.1" xmlns:xlink="http://www.w3.org/1999/xlink" xmlns="http://www.w3.org/2000/svg">
  <defs>
    <linearGradient x1="-0.062240664" y1="0.49792534" x2="0.76822776" y2="0.5" id="gradient_1">
      <stop offset="0" stop-color="#9E4399" />
      <stop offset="1" stop-color="#D3D3D3" />
    </linearGradient>
    <linearGradient x1="0" y1="0" x2="1" y2="1" id="gradient_2">
      <stop offset="0" stop-color="#9E4399" />
      <stop offset="1" stop-color="#D3D3D3" />
    </linearGradient>
  </defs>
  <path d="M0 120.5C0 53.9497 53.9497 0 120.5 0C187.05 0 241 53.9497 241 120.5C241 187.05 187.05 241 120.5 241C53.9497 241 0 187.05 0 120.5Z" id="Ellipse" fill="url(#gradient_1)" fill-rule="evenodd" stroke="none" />
  <path d="M105 0C47.0101 0 0 47.0101 0 105C0 162.99 47.0101 210 105 210C162.99 210 210 162.99 210 105C210 47.0101 162.99 0 105 0ZM93.2462 60.8204L145.584 44.8098C151.915 42.9879 157.068 46.6685 157.068 52.9991L157.068 130.089C157.068 140.082 147.001 149.412 134.598 150.903C122.194 152.412 112.128 146.1 112.128 136.107C112.128 126.114 122.194 116.802 134.598 115.293C143.045 114.263 147.756 116.986 147.756 116.986L147.756 79.1129C147.756 74.3833 142.64 76.0948 142.64 76.0948L96.3563 90.5963C96.3563 90.5963 91.0378 92.5102 91.0378 96.9269L91.0378 144.075C91.0378 154.068 81.9468 163.288 69.5248 165.036C57.1212 166.803 47.0548 160.693 47.0548 150.7C47.0548 140.708 57.1212 131.193 69.5248 129.427C77.9718 128.23 81.7628 130.788 81.7628 130.788L81.7628 75.5795C81.7628 69.2305 86.8972 62.6238 93.2462 60.8204Z" transform="translate(15.000122 15)" id="Ellipse-2-Difference" fill="#1E2229" fill-rule="evenodd" stroke="none" />
  <path d="M1.06532 160.511L1.06532 184.304L125.71 184.304L125.71 156.783L46.5199 156.783L46.5199 155.54L77.8587 123.668Q95.5255 106.712 105.336 94.6822Q115.146 82.6527 119.052 72.7983Q122.958 62.9439 122.958 52.7344Q122.958 37.4645 115.234 25.5682Q107.511 13.6719 93.7056 6.83594Q79.9006 1.52588e-05 61.6122 0Q43.5902 1.52588e-05 29.6964 7.0135Q15.8025 14.027 7.90126 26.8111Q-1.62125e-05 39.5952 -1.62125e-05 56.907L31.3388 56.907Q31.3388 42.9688 39.462 34.8455Q47.5852 26.7223 61.1683 26.7223Q74.13 26.7223 82.7415 34.1353Q91.353 41.5483 91.353 54.4212Q91.353 65.7848 84.517 75.3729Q77.6811 84.961 64.1868 98.6328L1.06532 160.511ZM158.203 2.48579L158.203 184.304L191.14 184.304L191.14 122.869L225.941 122.869Q246.982 122.869 261.364 115.101Q275.746 107.333 283.114 93.75Q290.483 80.1669 290.483 62.6776Q290.483 45.277 283.159 31.6939Q275.835 18.1108 261.586 10.2983Q247.337 2.48579 226.385 2.48579L158.203 2.48579ZM349.787 184.304L349.787 2.48579L317.649 2.48579L317.649 184.304L349.787 184.304ZM221.502 95.7919L191.14 95.7919L191.14 30.0071L221.325 30.0071Q239.879 30.0071 248.402 39.0625Q256.925 48.1179 256.925 62.6776Q256.925 77.1484 248.402 86.4702Q239.879 95.7919 221.502 95.7919ZM389.471 176.58Q402.521 187.056 422.053 187.056Q438.121 187.056 447.931 180.62Q457.741 174.183 462.092 165.572L463.157 165.572L463.157 184.304L494.052 184.304L494.052 93.0398Q494.052 79.5455 489.125 70.4901Q484.197 61.4347 476.074 56.108Q467.951 50.7813 458.185 48.473Q448.42 46.1648 438.654 46.1648Q417.17 46.1648 401.678 55.6641Q386.186 65.1634 380.859 83.8068L410.866 88.0682Q413.263 81.0547 420.144 75.9055Q427.024 70.7564 438.832 70.7564Q450.018 70.7564 455.966 76.2607Q461.914 81.7649 461.914 91.7969L461.914 92.3296Q461.914 99.2543 454.057 100.941Q446.2 102.628 428.178 104.581Q414.95 106.001 403.098 109.863Q391.246 113.725 383.833 122.203Q376.42 130.682 376.42 146.04Q376.42 166.104 389.471 176.58ZM534.313 234.419Q539.862 235.44 546.431 235.44Q565.252 235.44 576.571 226.296Q587.891 217.152 593.661 200.817L648.26 47.9403L614.08 47.9403L582.564 150.923L581.143 150.923L549.716 47.9403L515.625 47.9403L565.075 187.145L562.322 194.513Q557.883 206.143 550.692 208.097Q543.501 210.05 532.937 207.031L525.479 232.067Q528.764 233.398 534.313 234.419ZM453.48 155.096Q444.957 163.441 430.398 163.441Q420.366 163.441 413.885 158.913Q407.404 154.386 407.404 145.508Q407.404 136.275 414.595 131.88Q421.786 127.486 432.528 125.977Q436.79 125.355 442.915 124.467Q449.041 123.58 454.501 122.292Q459.961 121.005 462.003 119.318L462.003 135.387Q462.003 146.751 453.48 155.096Z" transform="translate(277.70575 28.195984)" id="Rectangle-2-Intersect" fill="url(#gradient_2)" fill-rule="evenodd" stroke="none" />
</svg>