<?xml version="1.0" encoding="utf-8"?>
<svg width="212px" height="212px" viewBox="0 0 212 212" version="1.1" xmlns:xlink="http://www.w3.org/1999/xlink" xmlns="http://www.w3.org/2000/svg">
  <path d="M0 0L212 0L212 212L0 212L0 0Z" id="Rectangle" fill="none" fill-rule="evenodd" stroke="none" />
  <path d="M0 1.5C0 0.671573 0.671573 0 1.5 0C2.32843 0 3 0.671573 3 1.5C3 2.32843 2.32843 3 1.5 3C0.671573 3 0 2.32843 0 1.5Z" transform="translate(30 30)" id="Ellipse-2" fill="#D3D3D3" fill-opacity="0.29803923" fill-rule="evenodd" stroke="none" />
  <path d="M0 1.5C0 0.671573 0.671573 0 1.5 0C2.32843 0 3 0.671573 3 1.5C3 2.32843 2.32843 3 1.5 3C0.671573 3 0 2.32843 0 1.5Z" transform="translate(84 46)" id="Ellipse-2-Copy-14" fill="#D3D3D3" fill-opacity="0.29803923" fill-rule="evenodd" stroke="none" />
  <path d="M0 1.5C0 0.671573 0.671573 0 1.5 0C2.32843 0 3 0.671573 3 1.5C3 2.32843 2.32843 3 1.5 3C0.671573 3 0 2.32843 0 1.5Z" transform="translate(15 9.5)" id="Ellipse-2-Copy-26" fill="#D3D3D3" fill-opacity="0.29803923" fill-rule="evenodd" stroke="none" />
  <path d="M0 0.75C0 0.335786 0.335786 0 0.75 0C1.16421 0 1.5 0.335786 1.5 0.75C1.5 1.16421 1.16421 1.5 0.75 1.5C0.335786 1.5 0 1.16421 0 0.75Z" transform="translate(135 27)" id="Ellipse-2-Copy-16" fill="#D3D3D3" fill-opacity="0.29803923" fill-rule="evenodd" stroke="none" />
  <path d="M0 1.5C0 0.671573 0.671573 0 1.5 0C2.32843 0 3 0.671573 3 1.5C3 2.32843 2.32843 3 1.5 3C0.671573 3 0 2.32843 0 1.5Z" transform="translate(103 16)" id="Ellipse-2-Copy" fill="#D3D3D3" fill-opacity="0.29803923" fill-rule="evenodd" stroke="none" />
  <path d="M0 0.75C0 0.335786 0.335786 0 0.75 0C1.16421 0 1.5 0.335786 1.5 0.75C1.5 1.16421 1.16421 1.5 0.75 1.5C0.335786 1.5 0 1.16421 0 0.75Z" transform="translate(63.5 91.5)" id="Ellipse-2-Copy-19" fill="#D3D3D3" fill-opacity="0.29803923" fill-rule="evenodd" stroke="none" />
  <path d="M0 0.75C0 0.335786 0.335786 0 0.75 0C1.16421 0 1.5 0.335786 1.5 0.75C1.5 1.16421 1.16421 1.5 0.75 1.5C0.335786 1.5 0 1.16421 0 0.75Z" transform="translate(50 198)" id="Ellipse-2-Copy-33" fill="#D3D3D3" fill-opacity="0.29803923" fill-rule="evenodd" stroke="none" />
  <path d="M0 0.75C0 0.335786 0.335786 0 0.75 0C1.16421 0 1.5 0.335786 1.5 0.75C1.5 1.16421 1.16421 1.5 0.75 1.5C0.335786 1.5 0 1.16421 0 0.75Z" transform="translate(63.5 6)" id="Ellipse-2-Copy-23" fill="#D3D3D3" fill-opacity="0.29803923" fill-rule="evenodd" stroke="none" />
  <path d="M0 0.75C0 0.335786 0.335786 0 0.75 0C1.16421 0 1.5 0.335786 1.5 0.75C1.5 1.16421 1.16421 1.5 0.75 1.5C0.335786 1.5 0 1.16421 0 0.75Z" transform="translate(36.5 170)" id="Ellipse-2-Copy-22" fill="#D3D3D3" fill-opacity="0.29803923" fill-rule="evenodd" stroke="none" />
  <path d="M0 0.75C0 0.335786 0.335786 0 0.75 0C1.16421 0 1.5 0.335786 1.5 0.75C1.5 1.16421 1.16421 1.5 0.75 1.5C0.335786 1.5 0 1.16421 0 0.75Z" transform="translate(137 93)" id="Ellipse-2-Copy-18" fill="#D3D3D3" fill-opacity="0.29803923" fill-rule="evenodd" stroke="none" />
  <path d="M0 0.75C0 0.335786 0.335786 0 0.75 0C1.16421 0 1.5 0.335786 1.5 0.75C1.5 1.16421 1.16421 1.5 0.75 1.5C0.335786 1.5 0 1.16421 0 0.75Z" transform="translate(198 74)" id="Ellipse-2-Copy-35" fill="#D3D3D3" fill-opacity="0.29803923" fill-rule="evenodd" stroke="none" />
  <path d="M0 0.75C0 0.335786 0.335786 0 0.75 0C1.16421 0 1.5 0.335786 1.5 0.75C1.5 1.16421 1.16421 1.5 0.75 1.5C0.335786 1.5 0 1.16421 0 0.75Z" transform="translate(104.5 106)" id="Ellipse-2-Copy-27" fill="#D3D3D3" fill-opacity="0.29803923" fill-rule="evenodd" stroke="none" />
  <path d="M0 0.75C0 0.335786 0.335786 0 0.75 0C1.16421 0 1.5 0.335786 1.5 0.75C1.5 1.16421 1.16421 1.5 0.75 1.5C0.335786 1.5 0 1.16421 0 0.75Z" transform="translate(77.5 133)" id="Ellipse-2-Copy-21" fill="#D3D3D3" fill-opacity="0.29803923" fill-rule="evenodd" stroke="none" />
  <path d="M0 0.75C0 0.335786 0.335786 0 0.75 0C1.16421 0 1.5 0.335786 1.5 0.75C1.5 1.16421 1.16421 1.5 0.75 1.5C0.335786 1.5 0 1.16421 0 0.75Z" transform="translate(124 48)" id="Ellipse-2-Copy-29" fill="#D3D3D3" fill-opacity="0.29803923" fill-rule="evenodd" stroke="none" />
  <path d="M0 0.75C0 0.335786 0.335786 0 0.75 0C1.16421 0 1.5 0.335786 1.5 0.75C1.5 1.16421 1.16421 1.5 0.75 1.5C0.335786 1.5 0 1.16421 0 0.75Z" transform="translate(10.5 46)" id="Ellipse-2-Copy-25" fill="#D3D3D3" fill-opacity="0.29803923" fill-rule="evenodd" stroke="none" />
  <path d="M0 0.75C0 0.335786 0.335786 0 0.75 0C1.16421 0 1.5 0.335786 1.5 0.75C1.5 1.16421 1.16421 1.5 0.75 1.5C0.335786 1.5 0 1.16421 0 0.75Z" transform="translate(178 43)" id="Ellipse-2-Copy-17" fill="#D3D3D3" fill-opacity="0.29803923" fill-rule="evenodd" stroke="none" />
  <path d="M0 0.75C0 0.335786 0.335786 0 0.75 0C1.16421 0 1.5 0.335786 1.5 0.75C1.5 1.16421 1.16421 1.5 0.75 1.5C0.335786 1.5 0 1.16421 0 0.75Z" transform="translate(164.5 9.5)" id="Ellipse-2-Copy-30" fill="#D3D3D3" fill-opacity="0.29803923" fill-rule="evenodd" stroke="none" />
  <path d="M0 0.75C0 0.335786 0.335786 0 0.75 0C1.16421 0 1.5 0.335786 1.5 0.75C1.5 1.16421 1.16421 1.5 0.75 1.5C0.335786 1.5 0 1.16421 0 0.75Z" transform="translate(33 127.5)" id="Ellipse-2-Copy-24" fill="#D3D3D3" fill-opacity="0.29803923" fill-rule="evenodd" stroke="none" />
  <path d="M0 0.75C0 0.335786 0.335786 0 0.75 0C1.16421 0 1.5 0.335786 1.5 0.75C1.5 1.16421 1.16421 1.5 0.75 1.5C0.335786 1.5 0 1.16421 0 0.75Z" transform="translate(178 130)" id="Ellipse-2-Copy-20" fill="#D3D3D3" fill-opacity="0.29803923" fill-rule="evenodd" stroke="none" />
  <path d="M0 0.75C0 0.335786 0.335786 0 0.75 0C1.16421 0 1.5 0.335786 1.5 0.75C1.5 1.16421 1.16421 1.5 0.75 1.5C0.335786 1.5 0 1.16421 0 0.75Z" transform="translate(199 190.00012)" id="Ellipse-2-Copy-32" fill="#D3D3D3" fill-opacity="0.29803923" fill-rule="evenodd" stroke="none" />
  <path d="M0 0.75C0 0.335786 0.335786 0 0.75 0C1.16421 0 1.5 0.335786 1.5 0.75C1.5 1.16421 1.16421 1.5 0.75 1.5C0.335786 1.5 0 1.16421 0 0.75Z" transform="translate(125.5 161)" id="Ellipse-2-Copy-28" fill="#D3D3D3" fill-opacity="0.29803923" fill-rule="evenodd" stroke="none" />
  <path d="M0 0.75C0 0.335786 0.335786 0 0.75 0C1.16421 0 1.5 0.335786 1.5 0.75C1.5 1.16421 1.16421 1.5 0.75 1.5C0.335786 1.5 0 1.16421 0 0.75Z" transform="translate(65 159.50012)" id="Ellipse-2-Copy-34" fill="#D3D3D3" fill-opacity="0.29803923" fill-rule="evenodd" stroke="none" />
  <path d="M0 0.75C0 0.335786 0.335786 0 0.75 0C1.16421 0 1.5 0.335786 1.5 0.75C1.5 1.16421 1.16421 1.5 0.75 1.5C0.335786 1.5 0 1.16421 0 0.75Z" transform="translate(164.5 159.5)" id="Ellipse-2-Copy-31" fill="#D3D3D3" fill-opacity="0.29803923" fill-rule="evenodd" stroke="none" />
  <path d="M0 0.75C0 0.335786 0.335786 0 0.75 0C1.16421 0 1.5 0.335786 1.5 0.75C1.5 1.16421 1.16421 1.5 0.75 1.5C0.335786 1.5 0 1.16421 0 0.75Z" transform="translate(132 186)" id="Ellipse-2-Copy-37" fill="#D3D3D3" fill-opacity="0.29803923" fill-rule="evenodd" stroke="none" />
  <path d="M0 0.75C0 0.335786 0.335786 0 0.75 0C1.16421 0 1.5 0.335786 1.5 0.75C1.5 1.16421 1.16421 1.5 0.75 1.5C0.335786 1.5 0 1.16421 0 0.75Z" transform="translate(198 159.50012)" id="Ellipse-2-Copy-36" fill="#D3D3D3" fill-opacity="0.29803923" fill-rule="evenodd" stroke="none" />
  <path d="M0 1.5C0 0.671573 0.671573 0 1.5 0C2.32843 0 3 0.671573 3 1.5C3 2.32843 2.32843 3 1.5 3C0.671573 3 0 2.32843 0 1.5Z" transform="translate(175 185)" id="Ellipse-2-Copy-6" fill="#D3D3D3" fill-opacity="0.29803923" fill-rule="evenodd" stroke="none" />
  <path d="M0 1.5C0 0.671573 0.671573 0 1.5 0C2.32843 0 3 0.671573 3 1.5C3 2.32843 2.32843 3 1.5 3C0.671573 3 0 2.32843 0 1.5Z" transform="translate(33 74)" id="Ellipse-2-Copy-2" fill="#D3D3D3" fill-opacity="0.29803923" fill-rule="evenodd" stroke="none" />
  <path d="M0 1.5C0 0.671573 0.671573 0 1.5 0C2.32843 0 3 0.671573 3 1.5C3 2.32843 2.32843 3 1.5 3C0.671573 3 0 2.32843 0 1.5Z" transform="translate(30 134)" id="Ellipse-2-Copy-9" fill="#D3D3D3" fill-opacity="0.29803923" fill-rule="evenodd" stroke="none" />
  <path d="M0 1.5C0 0.671573 0.671573 0 1.5 0C2.32843 0 3 0.671573 3 1.5C3 2.32843 2.32843 3 1.5 3C0.671573 3 0 2.32843 0 1.5Z" transform="translate(5 106)" id="Ellipse-2-Copy-13" fill="#D3D3D3" fill-opacity="0.29803923" fill-rule="evenodd" stroke="none" />
  <path d="M0 1.5C0 0.671573 0.671573 0 1.5 0C2.32843 0 3 0.671573 3 1.5C3 2.32843 2.32843 3 1.5 3C0.671573 3 0 2.32843 0 1.5Z" transform="translate(158 71)" id="Ellipse-2-Copy-5" fill="#D3D3D3" fill-opacity="0.29803923" fill-rule="evenodd" stroke="none" />
  <path d="M0 1.5C0 0.671573 0.671573 0 1.5 0C2.32843 0 3 0.671573 3 1.5C3 2.32843 2.32843 3 1.5 3C0.671573 3 0 2.32843 0 1.5Z" transform="translate(199 117)" id="Ellipse-2-Copy-11" fill="#D3D3D3" fill-opacity="0.29803923" fill-rule="evenodd" stroke="none" />
  <path d="M0 1.5C0 0.671573 0.671573 0 1.5 0C2.32843 0 3 0.671573 3 1.5C3 2.32843 2.32843 3 1.5 3C0.671573 3 0 2.32843 0 1.5Z" transform="translate(200 13)" id="Ellipse-2-Copy-10" fill="#D3D3D3" fill-opacity="0.29803923" fill-rule="evenodd" stroke="none" />
  <path d="M0 1.5C0 0.671573 0.671573 0 1.5 0C2.32843 0 3 0.671573 3 1.5C3 2.32843 2.32843 3 1.5 3C0.671573 3 0 2.32843 0 1.5Z" transform="translate(103 76)" id="Ellipse-2-Copy-7" fill="#D3D3D3" fill-opacity="0.29803923" fill-rule="evenodd" stroke="none" />
  <path d="M0 1.5C0 0.671573 0.671573 0 1.5 0C2.32843 0 3 0.671573 3 1.5C3 2.32843 2.32843 3 1.5 3C0.671573 3 0 2.32843 0 1.5Z" transform="translate(127 131)" id="Ellipse-2-Copy-15" fill="#D3D3D3" fill-opacity="0.29803923" fill-rule="evenodd" stroke="none" />
  <path d="M0 1.5C0 0.671573 0.671573 0 1.5 0C2.32843 0 3 0.671573 3 1.5C3 2.32843 2.32843 3 1.5 3C0.671573 3 0 2.32843 0 1.5Z" transform="translate(103 112.5)" id="Ellipse-2-Copy-38" fill="#D3D3D3" fill-opacity="0.29803923" fill-rule="evenodd" stroke="none" />
  <path d="M0 1.5C0 0.671573 0.671573 0 1.5 0C2.32843 0 3 0.671573 3 1.5C3 2.32843 2.32843 3 1.5 3C0.671573 3 0 2.32843 0 1.5Z" transform="translate(135 209)" id="Ellipse-2-Copy-12" fill="#D3D3D3" fill-opacity="0.29803923" fill-rule="evenodd" stroke="none" />
  <path d="M0 1.5C0 0.671573 0.671573 0 1.5 0C2.32843 0 3 0.671573 3 1.5C3 2.32843 2.32843 3 1.5 3C0.671573 3 0 2.32843 0 1.5Z" transform="translate(84 182)" id="Ellipse-2-Copy-8" fill="#D3D3D3" fill-opacity="0.29803923" fill-rule="evenodd" stroke="none" />
  <path d="M0 1.5C0 0.671573 0.671573 0 1.5 0C2.32843 0 3 0.671573 3 1.5C3 2.32843 2.32843 3 1.5 3C0.671573 3 0 2.32843 0 1.5Z" transform="translate(18 188)" id="Ellipse-2-Copy-4" fill="#D3D3D3" fill-opacity="0.29803923" fill-rule="evenodd" stroke="none" />
</svg>