<svg xmlns="http://www.w3.org/2000/svg" width="241" height="241"><defs><linearGradient id="a" x1="-.062" x2=".805" y1=".498" y2=".5"><stop offset="0" stop-color="#9E4399"/><stop offset="1" stop-color="#D3D3D3"/></linearGradient></defs><path fill="url(#a)" fill-rule="evenodd" d="M0 120.5C0 53.95 53.95 0 120.5 0S241 53.95 241 120.5 187.05 241 120.5 241 0 187.05 0 120.5Z"/><path fill="#1E2229" fill-rule="evenodd" d="M120 15C62.01 15 15 62.01 15 120s47.01 105 105 105 105-47.01 105-105S177.99 15 120 15Zm-12.147 60.028 52.984-16.208c6.408-1.845 11.625 1.881 11.625 8.29v78.04c0 10.116-10.191 19.562-22.747 21.071-12.557 1.527-22.747-4.863-22.747-14.979s10.19-19.542 22.747-21.07c8.551-1.043 13.32 1.714 13.32 1.714v-38.34c0-4.788-5.179-3.056-5.179-3.056l-46.854 14.68s-5.384 1.938-5.384 6.41v47.729c0 10.116-9.203 19.449-21.778 21.219-12.557 1.789-22.748-4.396-22.748-14.512s10.191-19.748 22.748-21.536c8.55-1.211 12.388 1.378 12.388 1.378v-55.89c0-6.427 5.198-13.115 11.625-14.94Z"/></svg>